<svg width="64" height="64" fill="none" xmlns="http://www.w3.org/2000/svg"><g filter="url(#a)"><path d="M27.874 55.348c2.279 1.316 5.973 1.316 8.252 0l23.748-13.71c2.279-1.316 2.279-3.45 0-4.765l-23.748-13.71c-2.279-1.316-5.973-1.316-8.252 0L4.126 36.872c-2.279 1.316-2.279 3.449 0 4.765l23.748 13.71z" fill="#3D056E"/></g><g filter="url(#b)"><path d="M27.874 47.958c2.279 1.316 5.973 1.316 8.252 0l23.748-13.71c2.279-1.316 2.279-3.45 0-4.765l-23.748-13.71c-2.279-1.316-5.973-1.316-8.252 0L4.126 29.482c-2.279 1.316-2.279 3.449 0 4.765l23.748 13.71z" fill="#4D038B"/></g><g filter="url(#c)"><path d="M27.874 40.568c2.279 1.316 5.973 1.316 8.252 0l23.748-13.71c2.279-1.316 2.279-3.45 0-4.765L36.126 8.383c-2.279-1.317-5.973-1.316-8.252 0L4.126 22.092c-2.279 1.316-2.279 3.449 0 4.764l23.748 13.711z" fill="url(#d)"/></g><path d="M34.893 31.421 19 22.246l5.196-3c1.724-.996 3.376-1.538 4.956-1.626a7.858 7.858 0 0 1 4.475 1.071c.742.429 1.19.93 1.343 1.506.145.572.01 1.158-.404 1.759a8.461 8.461 0 0 1 3.405-.379c1.172.097 2.224.414 3.155.952 1.426.823 2.085 1.737 1.976 2.741-.11 1.005-1.008 1.994-2.696 2.969l-5.513 3.182zm-5.338-5.501 5.72 3.302 3.46-1.998c.976-.563 1.492-1.151 1.55-1.764.059-.622-.356-1.19-1.244-1.702-1.914-1.105-3.911-1.057-5.992.145l-3.494 2.017zm-1.68-.97 3.165-1.828c.917-.53 1.419-1.084 1.506-1.664.095-.584-.25-1.103-1.037-1.557-.873-.504-1.76-.723-2.663-.655-.91.063-1.885.395-2.925.995l-3.1 1.79 5.053 2.918z" fill="#fff"/><defs><filter id="a" x=".417" y="21.176" width="63.166" height="38.16" filterUnits="userSpaceOnUse" color-interpolation-filters="sRGB"><feFlood flood-opacity="0" result="BackgroundImageFix"/><feColorMatrix in="SourceAlpha" values="0 0 0 0 0 0 0 0 0 0 0 0 0 0 0 0 0 0 127 0"/><feOffset dy="1"/><feGaussianBlur stdDeviation="1"/><feColorMatrix values="0 0 0 0 0.195354 0 0 0 0 0.0029861 0 0 0 0 0.358333 0 0 0 0.3 0"/><feBlend in2="BackgroundImageFix" result="effect1_dropShadow"/><feBlend in="SourceGraphic" in2="effect1_dropShadow" result="shape"/></filter><filter id="b" x=".417" y="13.786" width="63.166" height="38.16" filterUnits="userSpaceOnUse" color-interpolation-filters="sRGB"><feFlood flood-opacity="0" result="BackgroundImageFix"/><feColorMatrix in="SourceAlpha" values="0 0 0 0 0 0 0 0 0 0 0 0 0 0 0 0 0 0 127 0"/><feOffset dy="1"/><feGaussianBlur stdDeviation="1"/><feColorMatrix values="0 0 0 0 0.195354 0 0 0 0 0.0029861 0 0 0 0 0.358333 0 0 0 0.3 0"/><feBlend in2="BackgroundImageFix" result="effect1_dropShadow"/><feBlend in="SourceGraphic" in2="effect1_dropShadow" result="shape"/></filter><filter id="c" x=".417" y="6.395" width="63.166" height="38.16" filterUnits="userSpaceOnUse" color-interpolation-filters="sRGB"><feFlood flood-opacity="0" result="BackgroundImageFix"/><feColorMatrix in="SourceAlpha" values="0 0 0 0 0 0 0 0 0 0 0 0 0 0 0 0 0 0 127 0"/><feOffset dy="1"/><feGaussianBlur stdDeviation="1"/><feColorMatrix values="0 0 0 0 0.195354 0 0 0 0 0.0029861 0 0 0 0 0.358333 0 0 0 0.3 0"/><feBlend in2="BackgroundImageFix" result="effect1_dropShadow"/><feBlend in="SourceGraphic" in2="effect1_dropShadow" result="shape"/></filter><linearGradient id="d" x1="31.686" y1="7.232" x2="32" y2="43" gradientUnits="userSpaceOnUse"><stop stop-color="#914CDB"/><stop offset="1" stop-color="#5A02A2"/></linearGradient></defs></svg>