<svg width="64" height="64" fill="none" xmlns="http://www.w3.org/2000/svg"><path d="m31.586 57.292-18.47-5.127L9 6h45.227l-4.12 46.158-18.521 5.134z" fill="#264DE4"/><path d="M46.58 49.219 50.1 9.775H31.614v43.593l14.966-4.15z" fill="#2965F1"/><path d="m18.436 26.897.507 5.662h12.67v-5.662H18.437zM17.416 15.437l.515 5.662h13.683v-5.662H17.416zM31.614 41.601l-.025.007-6.306-1.703-.403-4.515h-5.684l.793 8.89 11.599 3.22.026-.008v-5.89z" fill="#EBEBEB"/><path d="m44.755 26.897 1.022-11.46H31.594v5.662h7.978l-.515 5.798h-7.463v5.662h6.972l-.657 7.343-6.315 1.704v5.89l11.607-3.216.085-.957 1.331-14.906.138-1.52z" fill="#fff"/></svg>