<svg width="51" height="50" fill="none" xmlns="http://www.w3.org/2000/svg"><path d="M49 38.3c-1.746.43-2.826.019-3.795-1.392l-6.891-9.244-.996-1.28-8.047 10.554c-.92 1.27-1.884 1.823-3.6 1.373L35.974 24.9l-9.594-12.114c1.65-.311 2.79-.153 3.803 1.28l7.147 9.358 7.2-9.307c.923-1.27 1.915-1.753 3.57-1.284l-3.72 4.781-5.04 6.363c-.6.727-.517 1.225.035 1.927L49 38.3zM1.012 24.676l.843-4.02C4.15 12.7 13.555 9.395 20.041 14.31c3.79 2.89 4.732 6.98 4.545 11.561H3.22c-.321 8.247 5.8 13.223 13.605 10.684 2.738-.892 4.35-2.97 5.157-5.57.41-1.303 1.088-1.507 2.35-1.134-.645 3.251-2.1 5.968-5.175 7.668-4.594 2.545-11.152 1.722-14.602-1.815-2.055-2.052-2.904-4.652-3.285-7.433-.06-.46-.18-.897-.27-1.338a212.3 212.3 0 0 0 .012-2.257v-.001zm2.247-.553h19.308c-.126-5.963-3.956-10.198-9.189-10.234-5.745-.044-9.87 4.09-10.119 10.234z" fill="#fff"/></svg>
