<svg width="51" height="50" fill="none" xmlns="http://www.w3.org/2000/svg"><g clip-path="url(#a)"><path d="M2.045 27.524a3.569 3.569 0 0 1 0-5.048l21.431-21.43a3.569 3.569 0 0 1 5.048 0l21.43 21.43a3.569 3.569 0 0 1 0 5.048l-21.43 21.43a3.569 3.569 0 0 1-5.048 0l-21.43-21.43z" fill="#EE513B"/><path d="M19.134 5 17 7.171l5.512 5.608a3.836 3.836 0 0 0-.347 1.601 3.796 3.796 0 0 0 2.414 3.553v13.718a3.795 3.795 0 0 0-2.414 3.553c0 2.096 1.67 3.796 3.731 3.796s3.732-1.7 3.732-3.796c0-1.473-.825-2.75-2.03-3.38V17.952l5.269 5.36a3.836 3.836 0 0 0-.33 1.564c0 2.096 1.67 3.796 3.731 3.796S40 26.972 40 24.876c0-2.097-1.67-3.796-3.732-3.796-.4 0-.786.064-1.148.183l-5.659-5.757c.109-.356.167-.734.167-1.126 0-2.096-1.67-3.796-3.732-3.796-.385 0-.756.06-1.106.17L19.134 5z" fill="#fff"/></g><defs><clipPath id="a"><path fill="#fff" transform="translate(.82)" d="M0 0h50v50H0z"/></clipPath></defs></svg>