<svg width="64" height="64" fill="none" xmlns="http://www.w3.org/2000/svg"><path d="m54.227 6-4.12 46.158-18.521 5.134-18.47-5.127L9 6h45.227z" fill="#E44D26"/><path d="m31.614 53.368 14.966-4.15L50.1 9.776H31.614v43.593z" fill="#F16529"/><path d="M23.604 21.099h8.01v-5.662H17.416l.136 1.519 1.391 15.603h12.67v-5.662h-7.492l-.517-5.798zM24.88 35.39h-5.684l.793 8.89 11.599 3.22.026-.008v-5.89l-.025.006-6.306-1.703-.403-4.515z" fill="#EBEBEB"/><path d="M31.594 32.559h6.972l-.657 7.343-6.315 1.704v5.89l11.607-3.216.085-.957 1.331-14.906.138-1.52h-13.16v5.662zM31.594 21.085v.014h13.677l.113-1.273.258-2.87.135-1.52H31.594v5.649z" fill="#fff"/></svg>