<svg width="64" height="64" fill="none" xmlns="http://www.w3.org/2000/svg"><path d="M4.094 15.666c-5.666 8.136-4.958 18.708-.636 27.344.104.218.208.416.312.614.062.136.136.27.208.396.036.076.078.149.126.218.072.146.146.27.218.406l.416.708c.072.136.156.26.24.386.146.25.322.5.468.75.072.104.136.208.208.312.26.406.542.802.834 1.188.208.282.416.562.636.844.072.094.156.198.23.302l.594.718c.072.084.136.178.218.26.26.312.542.626.812.928 0 .01.01.01.01.02.344.428.718.822 1.136 1.178.218.218.428.438.656.646l.27.26c.292.282.584.552.896.822.01 0 .01 0 .02.01l.146.126c.27.24.552.48.834.698l.334.282c.218.178.458.354.688.532l.364.282c.25.188.51.364.76.552.094.062.188.136.292.188l.072.062.75.5.322.208c.386.25.782.49 1.166.73.114.052.218.114.322.178.292.166.594.334.886.49.156.094.322.166.49.25.198.114.406.218.614.334a.508.508 0 0 1 .156.062l.25.126c.322.156.656.312 1 .458.062.032.136.052.208.094.386.166.76.334 1.166.49.084.02.178.072.27.104.364.136.74.27 1.104.406l.126.042c.416.146.812.27 1.23.406.094.02.198.062.292.084.428.136.834.282 1.26.364 27.364 4.99 35.312-16.448 35.312-16.448-6.678 8.698-18.532 10.99-29.76 8.438-.416-.094-.822-.23-1.25-.354-.5-.146-1.01-.312-1.51-.48l-.166-.062c-.354-.126-.708-.26-1.062-.396-.094-.042-.198-.072-.292-.114a35.07 35.07 0 0 1-1.156-.48c-.084-.032-.146-.072-.23-.104-.322-.146-.646-.292-.968-.448a3.778 3.778 0 0 1-.282-.146c-.25-.114-.5-.25-.75-.376-.166-.084-.334-.166-.49-.25l-.906-.5a2.988 2.988 0 0 0-.302-.178c-.396-.24-.782-.48-1.166-.718-.104-.062-.208-.136-.312-.208-.282-.178-.56-.362-.834-.552a4.02 4.02 0 0 1-.27-.198c-.27-.178-.535-.366-.792-.562-.114-.094-.23-.178-.354-.27-.23-.178-.468-.354-.698-.552l-.322-.25c-.302-.24-.594-.49-.886-.75-.032-.032-.062-.052-.104-.084l-.916-.834-.27-.25c-.218-.23-.438-.438-.666-.656l-.26-.27a21.08 21.08 0 0 1-.822-.864l-.042-.042c-.282-.302-.552-.626-.834-.938-.072-.084-.136-.178-.208-.26l-.604-.74c-.31-.393-.613-.792-.906-1.198-6.23-8.5-8.48-20.23-3.5-29.854l-4.396 5.59zm17.562-6.854c-4.104 5.896-3.876 13.77-.678 20a26.975 26.975 0 0 0 1.802 3.02c.614.876 1.292 1.916 2.114 2.626.282.322.594.636.916.958l.24.24c.302.292.614.584.938.864l.042.042c.354.312.718.614 1.104.906.084.062.166.136.25.198.376.282.75.562 1.136.834l.042.032c.166.114.344.23.532.344.072.052.156.114.24.156.282.188.562.354.844.532.052.02.084.042.126.062.24.146.51.282.76.416.084.052.166.094.26.146.178.084.354.178.52.27l.094.032c.354.178.718.344 1.084.51.375.164.754.32 1.136.468.136.042.26.094.386.136.27.104.562.198.834.292l.364.114c.396.126.792.282 1.198.344 21.126 3.5 26.01-12.76 26.01-12.76-4.406 6.334-12.916 9.354-22 7-.406-.104-.802-.23-1.198-.354-.126-.032-.24-.072-.364-.104-.27-.104-.562-.198-.822-.292l-.386-.146c-.302-.126-.604-.23-.896-.364-.094-.042-.178-.062-.24-.104a35.61 35.61 0 0 1-1.114-.51l-.552-.292-.312-.156c-.24-.123-.477-.255-.708-.396a2.464 2.464 0 0 1-.166-.094c-.282-.178-.572-.344-.844-.532a2.148 2.148 0 0 1-.26-.166l-.552-.354c-.386-.27-.76-.562-1.146-.834a2.09 2.09 0 0 0-.25-.208c-3.99-3.146-7.136-7.438-8.636-12.292-1.572-5.052-1.218-10.718 1.49-15.312l-3.338 4.728zm14.772-5.124c-2.416 3.552-2.656 7.968-.99 11.886 1.77 4.156 5.396 7.428 9.614 8.968.178.072.344.126.52.188l.23.072c.25.072.5.166.75.23 11.666 2.25 14.822-6 15.678-7.208-2.782 3.99-7.438 4.948-13.156 3.562a17.523 17.523 0 0 1-3.022-1.106 18.119 18.119 0 0 1-2.876-1.76c-5.126-3.886-8.292-11.282-4.948-17.312l-1.8 2.48z" fill="#7DCCF4"/></svg>