<svg width="64" height="64" fill="none" xmlns="http://www.w3.org/2000/svg"><path d="M26.178 61c-.79 0-1.575-.204-2.268-.596l-7.217-4.2c-1.078-.593-.552-.803-.197-.923 1.438-.495 1.73-.607 3.264-1.463.16-.09.372-.059.537.037l5.545 3.234c.2.107.484.107.67 0L48.13 44.822c.2-.112.33-.341.33-.575V19.722a.68.68 0 0 0-.335-.585L26.516 6.88a.675.675 0 0 0-.666 0L4.244 19.137a.675.675 0 0 0-.342.58v24.525c0 .234.13.457.335.569l5.92 3.362c3.215 1.58 5.18-.282 5.18-2.154V21.813c0-.346.275-.612.627-.612h2.738c.341 0 .623.266.623.612v24.216c0 4.213-2.338 6.634-6.402 6.634-1.25 0-2.235 0-4.984-1.33L2.267 48.12A4.48 4.48 0 0 1 0 44.242V19.717c0-1.596.866-3.086 2.267-3.873L23.908 3.57c1.37-.761 3.188-.761 4.546 0l21.614 12.278a4.47 4.47 0 0 1 2.267 3.873v24.525c0 1.59-.871 3.075-2.267 3.873L28.454 60.393a4.604 4.604 0 0 1-2.278.596" fill="#689F63"/><path d="M32.855 44.1c-9.459 0-11.442-4.268-11.442-7.848 0-.34.28-.612.626-.612h2.792c.309 0 .569.22.617.52.422 2.797 1.678 4.208 7.398 4.208 4.556 0 6.494-1.012 6.494-3.387 0-1.367-.552-2.383-7.63-3.064-5.92-.575-9.579-1.857-9.579-6.512 0-4.288 3.68-6.841 9.843-6.841 6.922 0 10.353 2.362 10.786 7.437a.613.613 0 0 1-.168.473.649.649 0 0 1-.46.197h-2.809a.618.618 0 0 1-.606-.479c-.676-2.942-2.31-3.883-6.753-3.883-4.973 0-5.552 1.702-5.552 2.979 0 1.548.681 2 7.392 2.873 6.645.867 9.8 2.09 9.8 6.682 0 4.628-3.929 7.283-10.78 7.283l.032-.025zm26.302-25.984h.725c.595 0 .709-.41.709-.649 0-.627-.439-.627-.682-.627h-.747l-.005 1.276zm-.882-2.01h1.607c.552 0 1.634 0 1.634 1.212 0 .846-.552 1.022-.882 1.128.644.043.687.458.774 1.043.043.367.114 1 .243 1.213h-.99c-.027-.213-.178-1.383-.178-1.447-.066-.26-.157-.389-.488-.389h-.817v1.841h-.903v-4.602zm-1.932 2.287c0 1.905 1.564 3.447 3.485 3.447 1.937 0 3.5-1.574 3.5-3.447 0-1.91-1.585-3.426-3.506-3.426-1.894 0-3.485 1.495-3.485 3.42l.006.006zm7.657.01c0 2.256-1.878 4.097-4.167 4.097-2.273 0-4.167-1.82-4.167-4.096 0-2.32 1.938-4.097 4.167-4.097 2.246 0 4.162 1.783 4.162 4.097" fill="#689F63"/></svg>