<svg width="65" height="64" fill="none" xmlns="http://www.w3.org/2000/svg"><g clip-path="url(#a)"><path d="M48.035 48c.958-1.917 2.01-3.917 3.156-6a1173.97 1173.97 0 0 0 2.5-4.563c.521-.958.969-1.906 1.344-2.843.375-.938.562-1.74.562-2.407 0-2.166-.406-4.02-1.218-5.562-.813-1.542-1.802-2.313-2.97-2.313-8.207 0-15.707-.5-22.5-1.5-10.666-1.541-18.624-5-23.874-10.375-.875-1-1.458-1.708-1.75-2.124-.292-.417-.708-1.115-1.25-2.094-.542-.98-.948-2.104-1.219-3.375C.546 3.573.285 1.958.035 0c.5 1.375 1.01 2.594 1.531 3.656.521 1.063.98 1.896 1.375 2.5A9.332 9.332 0 0 0 4.41 7.875c.583.542 1.01.917 1.281 1.125.271.208.719.48 1.344.813.625.333 1.02.562 1.187.687 5.875 3.667 21.813 5.5 47.813 5.5 2.042 0 3.885.844 5.531 2.531 1.646 1.688 2.469 3.615 2.469 5.782 0 1.25-.188 2.52-.563 3.812-.375 1.292-1 2.646-1.875 4.063a66.437 66.437 0 0 1-2.5 3.78c-.791 1.105-1.937 2.47-3.437 4.094a321.132 321.132 0 0 1-3.594 3.844c-.896.938-2.24 2.302-4.031 4.094zm-30 4c1.667 0 3.083.583 4.25 1.75 1.167 1.167 1.75 2.583 1.75 4.25 0 1.667-.583 3.083-1.75 4.25-1.167 1.167-2.583 1.75-4.25 1.75-1.667 0-3.083-.583-4.25-1.75-1.167-1.167-1.75-2.583-1.75-4.25 0-1.667.583-3.083 1.75-4.25 1.167-1.167 2.583-1.75 4.25-1.75zm24 0c1.667 0 3.083.583 4.25 1.75 1.167 1.167 1.75 2.583 1.75 4.25 0 1.667-.583 3.083-1.75 4.25-1.167 1.167-2.583 1.75-4.25 1.75-1.667 0-3.083-.583-4.25-1.75-1.167-1.167-1.75-2.583-1.75-4.25 0-1.667.583-3.083 1.75-4.25 1.167-1.167 2.583-1.75 4.25-1.75z" fill="#2EBFEB"/><path d="M18.035 52c1.667 0 3.083.583 4.25 1.75 1.167 1.167 1.75 2.583 1.75 4.25 0 1.667-.583 3.083-1.75 4.25-1.167 1.167-2.583 1.75-4.25 1.75-1.667 0-3.083-.583-4.25-1.75-1.167-1.167-1.75-2.583-1.75-4.25 0-1.667.583-3.083 1.75-4.25 1.167-1.167 2.583-1.75 4.25-1.75zm24 0c1.667 0 3.083.583 4.25 1.75 1.167 1.167 1.75 2.583 1.75 4.25 0 1.667-.583 3.083-1.75 4.25-1.167 1.167-2.583 1.75-4.25 1.75-1.667 0-3.083-.583-4.25-1.75-1.167-1.167-1.75-2.583-1.75-4.25 0-1.667.583-3.083 1.75-4.25 1.167-1.167 2.583-1.75 4.25-1.75z" fill="#2C2C2C"/></g><defs><clipPath id="a"><path fill="#fff" d="M0 0h64.063v64H0z"/></clipPath></defs></svg>