<svg width="64" height="64" fill="none" xmlns="http://www.w3.org/2000/svg"><circle cx="32" cy="32" r="25" fill="#4F5C93"/><path d="M20.546 29.028c1.18 0 1.96.21 2.36.654.4.442.485 1.18.274 2.234-.21 1.096-.632 1.897-1.243 2.36-.611.464-1.539.696-2.782.696h-1.876l1.159-5.944h2.108zM13 41h3.098l.738-3.773h2.656c1.18 0 2.129-.126 2.887-.38a5.537 5.537 0 0 0 2.066-1.243 6.327 6.327 0 0 0 1.265-1.58 6.15 6.15 0 0 0 .674-1.898c.337-1.686.084-2.992-.738-3.941-.822-.948-2.128-1.412-3.92-1.412h-5.965L13 41zm15.66-18h3.078L31 26.773h2.74c1.728 0 2.909.295 3.562.906.654.611.843 1.581.59 2.93l-1.285 6.618h-3.12l1.223-6.302c.147-.717.084-1.201-.148-1.454-.232-.253-.759-.4-1.538-.4h-2.466l-1.581 8.156h-3.078L28.66 23zm16.061 6.028c1.18 0 1.96.21 2.361.654.4.442.485 1.18.274 2.234-.21 1.096-.632 1.897-1.243 2.36-.612.464-1.54.696-2.783.696h-1.875l1.159-5.944h2.107zM37.176 41h3.098l.738-3.773h2.656c1.18 0 2.128-.126 2.887-.38a5.536 5.536 0 0 0 2.066-1.243 6.325 6.325 0 0 0 1.264-1.58c.317-.57.548-1.202.675-1.898.337-1.686.084-2.992-.738-3.941-.822-.948-2.129-1.412-3.92-1.412h-5.965L37.176 41z" fill="#fff"/></svg>