<svg width="64" height="64" fill="none" xmlns="http://www.w3.org/2000/svg"><path d="M31.947 37.312a5.355 5.355 0 1 0 0-10.71 5.355 5.355 0 0 0 0 10.71z" fill="#61DAFB"/><path d="M31.947 44.224c-7.52 0-14.09-.885-19.008-2.57-3.19-1.089-5.899-2.54-7.83-4.193-2.048-1.749-3.136-3.658-3.136-5.504 0-3.541 3.883-7.008 10.4-9.269 5.334-1.856 12.288-2.89 19.563-2.89 7.147 0 14.005 1.002 19.307 2.837 3.104 1.066 5.717 2.453 7.573 3.989 2.016 1.685 3.083 3.53 3.083 5.333 0 3.68-4.342 7.403-11.339 9.718-4.95 1.642-11.563 2.549-18.613 2.549zm0-21.867c-6.902 0-13.728 1.003-18.72 2.742-5.995 2.09-8.683 4.949-8.683 6.858 0 1.984 2.89 5.11 9.227 7.275 4.65 1.59 10.944 2.432 18.176 2.432 6.784 0 13.11-.853 17.813-2.421 6.581-2.187 9.59-5.312 9.59-7.286 0-1.013-.769-2.208-2.166-3.37-1.61-1.344-3.957-2.571-6.763-3.542-5.045-1.728-11.605-2.688-18.474-2.688z" fill="#61DAFB"/><path d="M19.797 58.645c-1.088 0-2.048-.234-2.858-.704-3.062-1.77-4.128-6.869-2.838-13.642 1.056-5.558 3.638-12.086 7.275-18.39 3.573-6.186 7.861-11.626 12.096-15.306 2.475-2.155 4.981-3.734 7.243-4.566 2.464-.906 4.597-.906 6.154-.01 3.19 1.834 4.246 7.466 2.752 14.677-1.056 5.12-3.573 11.296-7.093 17.408-3.755 6.507-7.808 11.755-11.723 15.179-2.538 2.218-5.152 3.84-7.54 4.682-1.249.448-2.422.672-3.468.672zm2.678-32.096 1.11.64c-3.446 5.974-5.996 12.384-6.977 17.59-1.184 6.24-.043 9.994 1.6 10.944.405.234.939.362 1.59.362 2.122 0 5.46-1.344 9.322-4.714 3.701-3.232 7.573-8.267 11.19-14.528 3.391-5.878 5.802-11.787 6.805-16.64 1.397-6.795.192-10.955-1.526-11.947-.874-.501-2.293-.437-4 .192-1.973.725-4.202 2.144-6.442 4.096-4.022 3.499-8.128 8.704-11.563 14.656l-1.11-.65z" fill="#61DAFB"/><path d="M44.096 58.677c-2.901 0-6.581-1.749-10.421-5.056-4.288-3.69-8.651-9.184-12.299-15.488-3.584-6.186-6.144-12.618-7.221-18.133-.63-3.221-.747-6.176-.342-8.555.448-2.592 1.504-4.437 3.072-5.344 3.179-1.845 8.587.054 14.091 4.95 3.904 3.466 8 8.736 11.53 14.837 3.766 6.507 6.294 12.64 7.297 17.739.65 3.306.757 6.378.298 8.874-.49 2.656-1.6 4.544-3.2 5.472-.8.47-1.749.704-2.805.704zM23.595 36.853c3.456 5.974 7.744 11.382 11.754 14.827 4.811 4.139 8.63 5.035 10.283 4.075 1.717-.992 2.976-5.056 1.675-11.627-.96-4.821-3.382-10.688-7.008-16.95-3.403-5.877-7.318-10.922-11.019-14.207-5.184-4.608-9.387-5.643-11.104-4.651-.875.501-1.525 1.77-1.835 3.563-.352 2.069-.245 4.714.331 7.626 1.024 5.238 3.477 11.392 6.923 17.344z" fill="#61DAFB"/></svg>