<svg width="64" height="64" fill="none" xmlns="http://www.w3.org/2000/svg"><g clip-path="url(#a)"><path d="M55.222 35.593c-2.232.012-4.173.55-5.798 1.345-.596-1.181-1.192-2.233-1.297-3.005-.117-.9-.258-1.45-.117-2.525.14-1.076.771-2.607.76-2.724-.012-.117-.14-.666-1.427-.678-1.286-.012-2.396.245-2.525.584a14.12 14.12 0 0 0-.537 1.906c-.222 1.17-2.572 5.343-3.916 7.529-.433-.853-.807-1.602-.889-2.198-.117-.9-.257-1.45-.117-2.525.14-1.076.772-2.607.76-2.724-.012-.117-.14-.666-1.426-.678-1.286-.012-2.397.245-2.525.584-.129.34-.27 1.134-.538 1.906-.269.772-3.39 7.74-4.208 9.54-.33.728-.678 1.45-1.04 2.163 0 0-.012.035-.047.093-.114.224-.231.446-.35.666v.012c-.176.316-.363.608-.457.608-.07 0-.199-.842.023-1.987.468-2.42 1.579-6.185 1.567-6.313 0-.07.21-.725-.725-1.064-.912-.34-1.239.222-1.32.222-.083 0-.141.199-.141.199s1.017-4.233-1.94-4.233c-1.848 0-4.396 2.023-5.659 3.847-1.435.78-2.869 1.564-4.301 2.35-.69.386-1.403.771-2.07 1.134-.046-.047-.093-.106-.14-.152C11.245 35.652 4.63 32.95 4.91 27.819c.106-1.87.748-6.78 12.707-12.743 9.843-4.852 17.675-3.507 19.031-.526 1.94 4.255-4.196 12.158-14.367 13.304-3.88.433-5.915-1.064-6.429-1.625-.538-.585-.62-.62-.818-.503-.328.176-.117.702 0 1.006.304.794 1.554 2.198 3.67 2.887 1.87.608 6.418.947 11.924-1.18 6.16-2.386 10.977-9.014 9.562-14.567-1.414-5.635-10.766-7.494-19.615-4.35-5.26 1.872-10.965 4.817-15.068 8.652C.63 22.734-.141 26.697.175 28.357c1.134 5.892 9.258 9.727 12.508 12.567-.164.094-.316.176-.444.246-1.625.807-7.82 4.045-9.364 7.47-1.753 3.882.281 6.664 1.625 7.038 4.174 1.158 8.464-.923 10.767-4.36 2.302-3.438 2.022-7.904.958-9.95-.012-.023-.023-.046-.047-.07.421-.245.854-.502 1.274-.748a62.122 62.122 0 0 1 2.35-1.321c-.397 1.087-.69 2.385-.83 4.256-.175 2.198.725 5.05 1.905 6.172.527.492 1.146.503 1.544.503 1.379 0 1.999-1.146 2.688-2.502.842-1.66 1.602-3.589 1.602-3.589s-.947 5.214 1.625 5.214c.935 0 1.882-1.216 2.303-1.835v.011s.023-.035.07-.116l.152-.246v-.023c.374-.655 1.216-2.14 2.466-4.606 1.614-3.18 3.168-7.155 3.168-7.155s.14.97.62 2.584c.28.946.865 1.987 1.332 2.992a19.79 19.79 0 0 1-.608.819l.012.011c-.304.398-.63.83-.993 1.251-1.275 1.52-2.794 3.262-3.005 3.765-.245.596-.187 1.029.281 1.38.339.256.947.291 1.566.256 1.146-.082 1.953-.362 2.35-.537a7.882 7.882 0 0 0 2.022-1.064c1.251-.924 2.01-2.245 1.94-3.987-.034-.958-.35-1.917-.736-2.817.117-.164.222-.328.34-.491 1.975-2.888 3.506-6.056 3.506-6.056s.14.97.62 2.584c.234.818.713 1.706 1.134 2.571-1.859 1.509-3.005 3.262-3.414 4.408-.736 2.128-.163 3.086.924 3.308.49.106 1.192-.128 1.707-.35a7.767 7.767 0 0 0 2.162-1.111c1.251-.923 2.455-2.21 2.385-3.951-.035-.795-.245-1.579-.538-2.339 1.578-.654 3.612-1.017 6.207-.713 5.565.655 6.664 4.127 6.453 5.589-.21 1.46-1.38 2.256-1.765 2.501-.386.246-.514.328-.48.503.047.257.235.246.562.199.456-.082 2.922-1.181 3.028-3.87.175-3.437-3.098-7.19-8.885-7.155zM12.297 50.067c-1.847 2.01-4.418 2.77-5.529 2.127-1.192-.69-.725-3.659 1.543-5.787 1.38-1.297 3.156-2.502 4.337-3.238.269-.164.666-.397 1.146-.69.081-.047.128-.07.128-.07l.28-.175c.83 3.04.036 5.716-1.905 7.833zm13.444-9.143c-.643 1.567-1.988 5.577-2.806 5.355-.701-.187-1.134-3.227-.14-6.231.502-1.509 1.566-3.31 2.186-4.01 1.005-1.123 2.116-1.497 2.384-1.04.34.595-1.227 4.944-1.624 5.926zm11.093 5.308c-.269.14-.526.234-.643.164-.082-.047.117-.234.117-.234s1.391-1.496 1.94-2.175c.317-.397.69-.865 1.088-1.39v.151c0 1.789-1.73 2.993-2.502 3.484zm8.557-1.952c-.199-.14-.164-.608.503-2.07.257-.573.865-1.531 1.905-2.455.117.374.2.737.187 1.076-.011 2.256-1.624 3.098-2.595 3.449z" fill="#CD6799"/></g><defs><clipPath id="a"><path fill="#fff" d="M0 0h64v64H0z"/></clipPath></defs></svg>