<svg id="Layer_1" style="enable-background:new 0 0 426 426" version="1.1" viewBox="0 0 426 426" xml:space="preserve" xmlns="http://www.w3.org/2000/svg"><style>.st1{fill:#fff}</style><path d="M412.5 214.3c-9.2 58.5-27.1 75.6-58.8 114.9-31.7 33.3-77.3 88.9-141.9 85.8-58.5-9.2-75.6-27.1-114.9-58.8C63.6 324.5 8 278.9 11.1 214.3c9.2-58.5 27.1-75.6 58.8-114.9 31.7-33.3 77.3-88.9 141.9-85.8 58.5 9.2 75.6 27.1 114.9 58.8 33.3 31.7 88.9 77.3 85.8 141.9z" style="fill:#3765af"/><path class="st1" d="M130.3 211.2c-7.2-2.1-12.1-.3-14.2 4.6l-14.4 32.4-14.1-32.4c-2.1-4.9-7-6.7-14.2-4.6-3.1 1-4.6 2.6-4.6 6.4v37.6h9.5v-37.6l14.9 32.7c1.6 3.9 4.1 5.4 8.8 5.4s6.9-1.5 8.7-5.4l14.7-32.7v37.6h9.5v-37.6c0-3.6-1.5-5.4-4.6-6.4zM178.7 249.1h-20.8c-5.3-.1-5.6-2.8-5.6-3.9v-20.6h-9.5c.3.1 0 20.7.1 21.2 0 4.7 6 9 15.5 9h20.3v2.5c0 .9.7 4-5.4 4.7h-30.1v6.4h29.9c4.8 0 15.1-1.8 15.1-10.1v-33.9h-9.5v24.7zM355.2 221.9c-.7-.7-1.5-1.3-2.1-2.1-2.1-2.8-4.7-5.4-7.5-7.4-2.3-1.6-7.5-3.8-8.3-6.5l-.2-.2c1.6-.2 3.4-.7 5.1-1.1 2.5-.7 4.7-.5 7.4-1.1 1.1-.3 2.3-.7 3.4-1v-.7c-1.3-1.3-2.3-3.1-3.6-4.3-3.8-3.3-7.9-6.4-12.1-9-2.3-1.5-5.2-2.5-7.5-3.6-.8-.5-2.3-.7-2.8-1.3-1.3-1.6-2.1-3.8-2.9-5.6-2.1-4.1-4.1-8.5-6.1-12.8-1.3-2.8-2.1-5.7-3.8-8.3-7.5-12.4-15.7-20-28.3-27.3-2.8-1.5-5.9-2.1-9.3-2.9-1.8 0-3.6-.2-5.4-.3-1.1-.5-2.3-2-3.4-2.6-4.1-2.6-14.9-8.3-18-.8-2 4.7 2.9 9.5 4.6 11.8 1.3 1.6 2.8 3.6 3.8 5.4.5 1.3.7 2.6 1.1 3.9 1.1 3.3 2.3 6.7 3.8 9.8.8 1.5 1.6 3.1 2.8 4.6.7.8 1.6 1.1 1.8 2.5-1 1.5-1.1 3.6-1.6 5.4-2.6 8.2-1.6 18.5 2.1 24.5 1.1 1.8 3.9 5.9 7.7 4.3 3.3-1.3 2.6-5.4 3.4-9.2.2-.8 0-1.5.5-2v.2c1 2 2 4.1 2.9 6.1 2.3 3.6 6.2 7.4 9.5 9.8 1.8 1.3 3.1 3.6 5.4 4.4v-.2h-.2c-.5-.7-1.1-1-1.6-1.5-1.3-1.3-2.8-2.9-3.8-4.4-3.1-4.1-5.7-8.7-8.2-13.3-1.1-2.3-2.1-4.7-3.1-7-.5-.8-.5-2.1-1.1-2.6-1.1 1.6-2.8 2.9-3.4 4.9-1.3 3.1-1.5 7-2 11-.3 0-.2 0-.3.2-2.3-.7-3.1-2.9-4.1-5.1-2.1-5.2-2.6-13.6-.7-19.5.5-1.5 2.8-6.4 1.8-7.9-.5-1.3-2-2.1-2.8-3.3-1-1.3-2-3.1-2.6-4.7-1.8-4.1-2.6-8.7-4.6-12.8-.8-2-2.5-3.9-3.6-5.6-1.3-2-2.9-3.4-4.1-5.7-.3-.8-.8-2.1-.3-2.9.2-.7.5-.8 1-1 1-.8 3.6.2 4.6.7 2.8 1.1 4.9 2.1 7.2 3.6 1 .7 2.1 2.1 3.4 2.5h1.5c2.3.5 4.9.2 7.2.8 3.9 1.3 7.4 3.1 10.5 5.1 9.5 6.1 17.5 14.7 22.7 25 .8 1.6 1.3 3.3 2 4.9 1.5 3.6 3.4 7.2 4.9 10.8 1.5 3.4 2.9 6.9 5.2 9.8 1.1 1.5 5.4 2.3 7.5 3.1 1.5.7 3.8 1.3 5.1 2 2.5 1.5 4.9 3.3 7.4 4.9.9.9 4.7 2.7 4.9 4.2-5.9-.2-10.3.5-14.2 2-1.1.5-2.8.5-2.9 1.8.7.7.7 1.5 1.1 2.3.8 1.5 2.5 3.4 3.8 4.4 1.5 1.1 3.1 2.3 4.7 3.4 2.8 1.8 6.1 2.8 8.8 4.6 1.6 1 3.3 2.3 4.7 3.4.8.7 1.3 1.5 2.3 2v-.2c-.5-.7-.7-1.6-1.1-2.3z"/><path class="st1" d="M270.6 137.5v.2h.2c.7 1.1 1.6 2 2.3 2.9.7 1.1 1.1 2.3 1.6 3.4l.2-.2c1-.7 1.5-2 1.5-3.6-.5-.5-.5-1-.8-1.5-.6-.7-1.6-1-2.1-1.5-1.3 0-2.1.2-2.9.3zM203.8 212.1c-5.6 1.8-8.2 4.6-8.2 9.5v5.2c0 4.3 4.7 8 12.9 8.8H222.1c2.9.3 4.3.8 5.2 2 .7.7.7 1.1.7 1.8v5.6c0 .7-.5 1.5-1.3 2.3s-2.3 1.3-4.1 1.3h-27.2v6.6H223c3.3 0 6.2-.7 8.8-1.8 4.1-2 6.1-4.4 6.1-7.9v-7c0-2.8-2.3-5.2-6.7-7-2.3-.8-5.2-1.3-8.2-1.3h-11.5c-3.9 0-5.7-1.1-6.2-3.8V220.5c.5-2 1.5-2.5 4.9-2.8h28v-6.4h-26.7c-3.9 0-5.9.2-7.7.8zM306.9 243.9v-32.7h-9.5l-.2 32.8c0 6.5 4.9 10.1 14.7 10.8 1 0 1.8.2 2.8.2h24.9v-6.4h-25c-5.6 0-7.7-1.3-7.7-4.7zM291.5 244.4v-22.6c0-5.7-3.9-9.2-11.9-10.3-1-.2-1.8-.2-2.8-.2h-18.2c-.8 0-1.8.2-2.6.2-8 1-12.1 4.6-12.1 10.3v22.6c0 5.2 2.9 8.5 9.4 10.2 2 .5 4 .7 5.6.7H269l7.7-.5 7.5 6.9h11l-9.3-8.5c4-1.6 5.6-4.1 5.6-8.8zm-9.2-22.1v22.6c-.4 1.3-1.2 2.4-2.5 3.1l-6.9-6.2h-11l7.9 7.2h-8.7c-3.8 0-6.2-1.5-6.7-4.1 0-.3-.2-.7-.2-1v-21.6c0-2.9 2.7-4.7 7-4.7h14.4c3.8 0 6.2 1.4 6.7 3.9v.8zM352.2 253.2l-1.8-4.4h-2v6.4h1.3v-4.9l1.8 4.9h1l1.8-4.9.2 4.9h1.3v-6.4h-2zM341.9 249.8h2v5.4h1.3v-5.4h1.8v-1.1h-5.1z"/></svg>