<svg width="51" height="50" fill="none" xmlns="http://www.w3.org/2000/svg"><g clip-path="url(#a)"><path d="M43.379 0h-35a7.5 7.5 0 0 0-7.5 7.5v35a7.5 7.5 0 0 0 7.5 7.5h35a7.5 7.5 0 0 0 7.5-7.5v-35a7.5 7.5 0 0 0-7.5-7.5z" fill="#3178C6"/><path d="M23.633 27.734h6.25V23.73h-17.48v4.004h6.25v17.871h4.98v-17.87zm8.203 16.895c.791.41 1.758.713 2.832.918 1.074.205 2.246.303 3.418.303 1.172 0 2.246-.108 3.32-.332a8.423 8.423 0 0 0 2.735-1.075c.79-.517 1.465-1.171 1.855-2.05.39-.88.694-1.856.694-3.125 0-.89-.137-1.66-.4-2.344a4.602 4.602 0 0 0-1.173-1.758 7.759 7.759 0 0 0-1.758-1.367c-.683-.39-1.465-.801-2.343-1.172-.645-.264-1.172-.518-1.758-.772-.508-.253-.948-.507-1.27-.761a3.485 3.485 0 0 1-.83-.82 1.715 1.715 0 0 1-.293-.977c0-.332.087-.635.264-.908.177-.274.42-.498.732-.694.313-.195.704-.341 1.172-.449a6.82 6.82 0 0 1 1.563-.156c.41 0 .84.03 1.27.092a10.845 10.845 0 0 1 2.734.762c.43.195.83.42 1.172.673v-4.59a12.063 12.063 0 0 0-2.442-.634c-.879-.137-1.855-.206-3.027-.206-1.172 0-2.246.127-3.32.372-1.075.244-1.954.634-2.735 1.171-.791.528-1.367 1.172-1.855 2.051-.46.82-.684 1.758-.684 2.93 0 1.465.42 2.734 1.27 3.71.84 1.075 2.148 1.856 3.808 2.638.674.273 1.27.547 1.856.81a8.327 8.327 0 0 1 1.464.82c.42.284.752.596.977.928.244.332.371.723.371 1.172 0 .313-.076.605-.224.879-.149.273-.381.508-.694.703a3.958 3.958 0 0 1-1.172.469c-.459.107-.976.166-1.66.166a8.852 8.852 0 0 1-3.125-.557c-1.074-.37-2.05-.927-2.744-1.508v4.688z" fill="#fff"/></g><defs><clipPath id="a"><path fill="#fff" transform="translate(.879)" d="M0 0h50v50H0z"/></clipPath></defs></svg>