<svg xmlns="http://www.w3.org/2000/svg" viewBox="0 0 100 100"><circle cx="50" cy="50" r="45" fill="#fff" stroke="#3c790a" stroke-width="10"/><path fill="#3c790a" d="M66.23 62.237h8.005V43.019l-9.017-9.017-5.661 5.659 6.673 6.673v15.903zm8.024 4.012H46.336l-6.674-6.672 2.83-2.831 5.513 5.513h11.34L48.173 51.066l2.851-2.851 11.172 11.172V48.046l-5.49-5.49 2.808-2.809-13.875-13.939H17.763l7.983 7.983v.021h16.558l5.849 5.849-8.554 8.554-5.848-5.85v-4.54h-8.005v7.855l13.853 13.855-5.638 5.639 9.017 9.018h39.26l-7.984-7.943z"/></svg>