<svg width="64" height="64" fill="none" xmlns="http://www.w3.org/2000/svg"><path d="M64 32C64 14.336 49.664 0 32 0S0 14.336 0 32s14.336 32 32 32 32-14.336 32-32zM32 3.232c15.904 0 28.768 12.864 28.768 28.768S47.904 60.768 32 60.768 3.232 47.904 3.232 32 16.096 3.232 32 3.232zm-6.368 44.192-9.76-26.272c1.568-.096 3.36-.256 3.36-.256 1.376-.16 1.216-3.232-.192-3.168 0 0-4.128.32-6.816.32-.48 0-1.056 0-1.664-.032C15.168 11.072 23.04 6.496 32 6.496c6.688 0 12.768 2.528 17.312 6.688-1.92-.256-4.64 1.12-4.64 4.544 0 2.112 1.216 3.904 2.528 6.016.992 1.728 1.6 3.904 1.6 7.072 0 4.288-4.064 14.336-4.064 14.336l-8.672-24c1.536-.096 2.4-.512 2.4-.512 1.376-.16 1.216-3.52-.16-3.456 0 0-4.16.352-6.848.352-2.496 0-6.752-.352-6.752-.352-1.376-.064-1.536 3.392-.16 3.456l2.688.256 3.584 9.728-5.184 16.8zm19.264 6.88L53.248 32s2.144-5.408 1.248-12.192c2.016 3.648 3.008 7.744 3.008 12.192 0 9.472-4.992 17.856-12.608 22.304zm-36.32-32.64L20.8 55.2C12.256 51.04 6.496 42.144 6.496 32c0-3.712.64-7.136 2.08-10.336zm23.84 14.496 7.328 20A22.893 22.893 0 0 1 32 57.504c-2.304 0-4.512-.352-6.592-.96l7.008-20.384z" fill="#296F97"/></svg>